<mxfile host="Electron" agent="Mozilla/5.0 (X11; Linux x86_64) AppleWebKit/537.36 (KHTML, like Gecko) draw.io/24.7.17 Chrome/128.0.6613.36 Electron/32.0.1 Safari/537.36" version="24.7.17">
  <diagram name="Page-1" id="okQUsLcCIn6qNMJXYvbM">
    <mxGraphModel dx="5430" dy="2303" grid="1" gridSize="10" guides="1" tooltips="1" connect="1" arrows="1" fold="1" page="1" pageScale="1" pageWidth="850" pageHeight="1100" math="0" shadow="0">
      <root>
        <mxCell id="0" />
        <mxCell id="1" parent="0" />
        <mxCell id="6JF1dS1EM6xbTjunklgh-60" value="&lt;font style=&quot;font-size: 36px;&quot;&gt;Old Logical Disk&lt;/font&gt;" style="rounded=1;whiteSpace=wrap;html=1;verticalAlign=bottom;container=0;" parent="1" vertex="1">
          <mxGeometry x="-1140" y="-140" width="420" height="300" as="geometry" />
        </mxCell>
        <mxCell id="6JF1dS1EM6xbTjunklgh-1" value="&lt;font style=&quot;font-size: 36px;&quot;&gt;Leg&lt;/font&gt;" style="rounded=1;whiteSpace=wrap;html=1;verticalAlign=bottom;" parent="1" vertex="1">
          <mxGeometry x="-2550" y="-160" width="1260" height="1020" as="geometry" />
        </mxCell>
        <mxCell id="6JF1dS1EM6xbTjunklgh-116" value="" style="rounded=1;whiteSpace=wrap;html=1;strokeWidth=2;dashed=1;" parent="1" vertex="1">
          <mxGeometry x="-2530" y="250" width="1220" height="560" as="geometry" />
        </mxCell>
        <mxCell id="6JF1dS1EM6xbTjunklgh-103" value="&lt;font style=&quot;font-size: 48px;&quot;&gt;New Disk Node&lt;/font&gt;" style="rounded=1;whiteSpace=wrap;html=1;verticalAlign=bottom;" parent="1" vertex="1">
          <mxGeometry x="-1190" y="300" width="535" height="540" as="geometry" />
        </mxCell>
        <mxCell id="6JF1dS1EM6xbTjunklgh-84" value="&lt;font style=&quot;font-size: 36px;&quot;&gt;New Logical Disk&lt;/font&gt;" style="rounded=1;whiteSpace=wrap;html=1;verticalAlign=bottom;" parent="1" vertex="1">
          <mxGeometry x="-1130" y="360" width="415" height="420" as="geometry" />
        </mxCell>
        <mxCell id="6JF1dS1EM6xbTjunklgh-2" value="&lt;font style=&quot;font-size: 24px;&quot;&gt;logical disk&lt;/font&gt;" style="rounded=0;whiteSpace=wrap;html=1;" parent="1" vertex="1">
          <mxGeometry x="-2490" y="740" width="240" height="60" as="geometry" />
        </mxCell>
        <mxCell id="6JF1dS1EM6xbTjunklgh-3" value="&lt;font style=&quot;font-size: 24px;&quot;&gt;raid1&lt;/font&gt;" style="rounded=0;whiteSpace=wrap;html=1;" parent="1" vertex="1">
          <mxGeometry x="-2310" y="500" width="180" height="60" as="geometry" />
        </mxCell>
        <mxCell id="6JF1dS1EM6xbTjunklgh-4" value="&lt;span style=&quot;font-size: 24px;&quot;&gt;raid1&lt;br&gt;meta&lt;br&gt;&lt;/span&gt;" style="rounded=0;whiteSpace=wrap;html=1;" parent="1" vertex="1">
          <mxGeometry x="-2490" y="620" width="60" height="60" as="geometry" />
        </mxCell>
        <mxCell id="6JF1dS1EM6xbTjunklgh-5" value="&lt;font style=&quot;font-size: 24px;&quot;&gt;raid1&lt;br&gt;data&lt;br&gt;&lt;/font&gt;" style="rounded=0;whiteSpace=wrap;html=1;" parent="1" vertex="1">
          <mxGeometry x="-2430" y="620" width="180" height="60" as="geometry" />
        </mxCell>
        <mxCell id="6JF1dS1EM6xbTjunklgh-6" value="&lt;font style=&quot;font-size: 24px;&quot;&gt;logical disk&lt;/font&gt;" style="rounded=0;whiteSpace=wrap;html=1;" parent="1" vertex="1">
          <mxGeometry x="-2190" y="740" width="240" height="60" as="geometry" />
        </mxCell>
        <mxCell id="6JF1dS1EM6xbTjunklgh-7" value="&lt;span style=&quot;font-size: 24px;&quot;&gt;raid1&lt;br&gt;meta&lt;br&gt;&lt;/span&gt;" style="rounded=0;whiteSpace=wrap;html=1;" parent="1" vertex="1">
          <mxGeometry x="-2190" y="620" width="60" height="60" as="geometry" />
        </mxCell>
        <mxCell id="6JF1dS1EM6xbTjunklgh-8" value="&lt;font style=&quot;font-size: 24px;&quot;&gt;raid1&lt;br&gt;data&lt;br&gt;&lt;/font&gt;" style="rounded=0;whiteSpace=wrap;html=1;" parent="1" vertex="1">
          <mxGeometry x="-2130" y="620" width="180" height="60" as="geometry" />
        </mxCell>
        <mxCell id="6JF1dS1EM6xbTjunklgh-9" value="&lt;font style=&quot;font-size: 24px;&quot;&gt;logical disk&lt;/font&gt;" style="rounded=0;whiteSpace=wrap;html=1;" parent="1" vertex="1">
          <mxGeometry x="-1890" y="740" width="240" height="60" as="geometry" />
        </mxCell>
        <mxCell id="6JF1dS1EM6xbTjunklgh-10" value="&lt;font style=&quot;font-size: 24px;&quot;&gt;raid1&lt;/font&gt;" style="rounded=0;whiteSpace=wrap;html=1;" parent="1" vertex="1">
          <mxGeometry x="-1710" y="500" width="180" height="60" as="geometry" />
        </mxCell>
        <mxCell id="6JF1dS1EM6xbTjunklgh-11" value="&lt;span style=&quot;font-size: 24px;&quot;&gt;raid1&lt;br&gt;meta&lt;br&gt;&lt;/span&gt;" style="rounded=0;whiteSpace=wrap;html=1;" parent="1" vertex="1">
          <mxGeometry x="-1890" y="620" width="60" height="60" as="geometry" />
        </mxCell>
        <mxCell id="6JF1dS1EM6xbTjunklgh-12" value="&lt;font style=&quot;font-size: 24px;&quot;&gt;raid1&lt;br&gt;data&lt;br&gt;&lt;/font&gt;" style="rounded=0;whiteSpace=wrap;html=1;" parent="1" vertex="1">
          <mxGeometry x="-1830" y="620" width="180" height="60" as="geometry" />
        </mxCell>
        <mxCell id="6JF1dS1EM6xbTjunklgh-13" value="&lt;font style=&quot;font-size: 24px;&quot;&gt;logical disk&lt;/font&gt;" style="rounded=0;whiteSpace=wrap;html=1;" parent="1" vertex="1">
          <mxGeometry x="-1590" y="740" width="240" height="60" as="geometry" />
        </mxCell>
        <mxCell id="6JF1dS1EM6xbTjunklgh-14" value="&lt;span style=&quot;font-size: 24px;&quot;&gt;raid1&lt;br&gt;meta&lt;br&gt;&lt;/span&gt;" style="rounded=0;whiteSpace=wrap;html=1;" parent="1" vertex="1">
          <mxGeometry x="-1590" y="620" width="60" height="60" as="geometry" />
        </mxCell>
        <mxCell id="6JF1dS1EM6xbTjunklgh-15" value="&lt;font style=&quot;font-size: 24px;&quot;&gt;raid1&lt;br&gt;data&lt;br&gt;&lt;/font&gt;" style="rounded=0;whiteSpace=wrap;html=1;" parent="1" vertex="1">
          <mxGeometry x="-1530" y="620" width="180" height="60" as="geometry" />
        </mxCell>
        <mxCell id="6JF1dS1EM6xbTjunklgh-16" value="&lt;font style=&quot;font-size: 24px;&quot;&gt;thin&lt;br&gt;meta&lt;br&gt;&lt;/font&gt;" style="rounded=0;whiteSpace=wrap;html=1;" parent="1" vertex="1">
          <mxGeometry x="-2310" y="380" width="60" height="60" as="geometry" />
        </mxCell>
        <mxCell id="6JF1dS1EM6xbTjunklgh-17" value="&lt;font style=&quot;font-size: 24px;&quot;&gt;thin&lt;br&gt;data&lt;br&gt;&lt;/font&gt;" style="rounded=0;whiteSpace=wrap;html=1;" parent="1" vertex="1">
          <mxGeometry x="-2250" y="380" width="120" height="60" as="geometry" />
        </mxCell>
        <mxCell id="6JF1dS1EM6xbTjunklgh-18" value="&lt;font style=&quot;font-size: 24px;&quot;&gt;thin&lt;br&gt;meta&lt;br&gt;&lt;/font&gt;" style="rounded=0;whiteSpace=wrap;html=1;" parent="1" vertex="1">
          <mxGeometry x="-1710" y="380" width="60" height="60" as="geometry" />
        </mxCell>
        <mxCell id="6JF1dS1EM6xbTjunklgh-19" value="&lt;font style=&quot;font-size: 24px;&quot;&gt;thin&lt;br&gt;data&lt;br&gt;&lt;/font&gt;" style="rounded=0;whiteSpace=wrap;html=1;" parent="1" vertex="1">
          <mxGeometry x="-1650" y="380" width="120" height="60" as="geometry" />
        </mxCell>
        <mxCell id="6JF1dS1EM6xbTjunklgh-20" value="&lt;font style=&quot;font-size: 24px;&quot;&gt;thin&lt;br&gt;meta&lt;br&gt;&lt;/font&gt;" style="rounded=0;whiteSpace=wrap;html=1;" parent="1" vertex="1">
          <mxGeometry x="-2070" y="260" width="120" height="60" as="geometry" />
        </mxCell>
        <mxCell id="6JF1dS1EM6xbTjunklgh-21" value="&lt;font style=&quot;font-size: 24px;&quot;&gt;thin&lt;br&gt;data&lt;br&gt;&lt;/font&gt;" style="rounded=0;whiteSpace=wrap;html=1;" parent="1" vertex="1">
          <mxGeometry x="-1890" y="260" width="240" height="60" as="geometry" />
        </mxCell>
        <mxCell id="6JF1dS1EM6xbTjunklgh-22" value="&lt;font style=&quot;font-size: 24px;&quot;&gt;thin pool&lt;br&gt;&lt;/font&gt;" style="rounded=0;whiteSpace=wrap;html=1;" parent="1" vertex="1">
          <mxGeometry x="-2040" y="140" width="240" height="60" as="geometry" />
        </mxCell>
        <mxCell id="6JF1dS1EM6xbTjunklgh-23" value="&lt;font style=&quot;font-size: 24px;&quot;&gt;thin dev&lt;br&gt;&lt;/font&gt;" style="rounded=0;whiteSpace=wrap;html=1;" parent="1" vertex="1">
          <mxGeometry x="-2160" y="20" width="480" height="60" as="geometry" />
        </mxCell>
        <mxCell id="6JF1dS1EM6xbTjunklgh-24" value="" style="endArrow=classic;html=1;rounded=0;strokeWidth=5;strokeColor=#808080;exitX=0.5;exitY=0;exitDx=0;exitDy=0;entryX=0.5;entryY=1;entryDx=0;entryDy=0;" parent="1" source="6JF1dS1EM6xbTjunklgh-16" target="6JF1dS1EM6xbTjunklgh-20" edge="1">
          <mxGeometry width="50" height="50" relative="1" as="geometry">
            <mxPoint x="-2260" y="350" as="sourcePoint" />
            <mxPoint x="-2210" y="300" as="targetPoint" />
          </mxGeometry>
        </mxCell>
        <mxCell id="6JF1dS1EM6xbTjunklgh-25" value="" style="endArrow=classic;html=1;rounded=0;strokeWidth=5;strokeColor=#808080;exitX=0.5;exitY=0;exitDx=0;exitDy=0;entryX=0.5;entryY=1;entryDx=0;entryDy=0;" parent="1" source="6JF1dS1EM6xbTjunklgh-3" target="6JF1dS1EM6xbTjunklgh-17" edge="1">
          <mxGeometry width="50" height="50" relative="1" as="geometry">
            <mxPoint x="-2070" y="480" as="sourcePoint" />
            <mxPoint x="-2020" y="430" as="targetPoint" />
          </mxGeometry>
        </mxCell>
        <mxCell id="6JF1dS1EM6xbTjunklgh-26" value="" style="endArrow=classic;html=1;rounded=0;strokeWidth=5;strokeColor=#808080;exitX=0.5;exitY=0;exitDx=0;exitDy=0;entryX=0.5;entryY=1;entryDx=0;entryDy=0;" parent="1" source="6JF1dS1EM6xbTjunklgh-18" target="6JF1dS1EM6xbTjunklgh-20" edge="1">
          <mxGeometry width="50" height="50" relative="1" as="geometry">
            <mxPoint x="-1980" y="420" as="sourcePoint" />
            <mxPoint x="-1930" y="370" as="targetPoint" />
          </mxGeometry>
        </mxCell>
        <mxCell id="6JF1dS1EM6xbTjunklgh-27" value="" style="endArrow=classic;html=1;rounded=0;strokeWidth=5;strokeColor=#808080;exitX=0.575;exitY=-0.05;exitDx=0;exitDy=0;exitPerimeter=0;entryX=0.5;entryY=1;entryDx=0;entryDy=0;" parent="1" source="6JF1dS1EM6xbTjunklgh-17" target="6JF1dS1EM6xbTjunklgh-21" edge="1">
          <mxGeometry width="50" height="50" relative="1" as="geometry">
            <mxPoint x="-1960" y="400" as="sourcePoint" />
            <mxPoint x="-1910" y="350" as="targetPoint" />
          </mxGeometry>
        </mxCell>
        <mxCell id="6JF1dS1EM6xbTjunklgh-28" value="" style="endArrow=classic;html=1;rounded=0;strokeWidth=5;strokeColor=#808080;exitX=0.5;exitY=0;exitDx=0;exitDy=0;entryX=0.5;entryY=1;entryDx=0;entryDy=0;" parent="1" source="6JF1dS1EM6xbTjunklgh-19" target="6JF1dS1EM6xbTjunklgh-21" edge="1">
          <mxGeometry width="50" height="50" relative="1" as="geometry">
            <mxPoint x="-1430" y="410" as="sourcePoint" />
            <mxPoint x="-1380" y="360" as="targetPoint" />
          </mxGeometry>
        </mxCell>
        <mxCell id="6JF1dS1EM6xbTjunklgh-29" value="" style="endArrow=classic;html=1;rounded=0;strokeWidth=5;strokeColor=#808080;exitX=0.5;exitY=0;exitDx=0;exitDy=0;entryX=0.5;entryY=1;entryDx=0;entryDy=0;" parent="1" source="6JF1dS1EM6xbTjunklgh-2" target="6JF1dS1EM6xbTjunklgh-5" edge="1">
          <mxGeometry width="50" height="50" relative="1" as="geometry">
            <mxPoint x="-2130" y="910" as="sourcePoint" />
            <mxPoint x="-2080" y="860" as="targetPoint" />
          </mxGeometry>
        </mxCell>
        <mxCell id="6JF1dS1EM6xbTjunklgh-30" value="" style="endArrow=classic;html=1;rounded=0;strokeWidth=5;strokeColor=#808080;exitX=0.5;exitY=0;exitDx=0;exitDy=0;entryX=0.5;entryY=1;entryDx=0;entryDy=0;" parent="1" source="6JF1dS1EM6xbTjunklgh-4" target="6JF1dS1EM6xbTjunklgh-3" edge="1">
          <mxGeometry width="50" height="50" relative="1" as="geometry">
            <mxPoint x="-2420" y="550" as="sourcePoint" />
            <mxPoint x="-2370" y="500" as="targetPoint" />
          </mxGeometry>
        </mxCell>
        <mxCell id="6JF1dS1EM6xbTjunklgh-31" value="" style="endArrow=classic;html=1;rounded=0;strokeWidth=5;strokeColor=#808080;exitX=0.5;exitY=0;exitDx=0;exitDy=0;entryX=0.5;entryY=1;entryDx=0;entryDy=0;" parent="1" source="6JF1dS1EM6xbTjunklgh-10" target="6JF1dS1EM6xbTjunklgh-18" edge="1">
          <mxGeometry width="50" height="50" relative="1" as="geometry">
            <mxPoint x="-1420" y="500" as="sourcePoint" />
            <mxPoint x="-1370" y="450" as="targetPoint" />
          </mxGeometry>
        </mxCell>
        <mxCell id="6JF1dS1EM6xbTjunklgh-32" value="" style="endArrow=classic;html=1;rounded=0;strokeWidth=5;strokeColor=#808080;entryX=0.5;entryY=1;entryDx=0;entryDy=0;exitX=0.5;exitY=0;exitDx=0;exitDy=0;" parent="1" source="6JF1dS1EM6xbTjunklgh-10" target="6JF1dS1EM6xbTjunklgh-19" edge="1">
          <mxGeometry width="50" height="50" relative="1" as="geometry">
            <mxPoint x="-1390" y="510" as="sourcePoint" />
            <mxPoint x="-1340" y="460" as="targetPoint" />
          </mxGeometry>
        </mxCell>
        <mxCell id="6JF1dS1EM6xbTjunklgh-33" value="" style="endArrow=classic;html=1;rounded=0;strokeWidth=5;strokeColor=#808080;exitX=0.5;exitY=0;exitDx=0;exitDy=0;entryX=0.5;entryY=1;entryDx=0;entryDy=0;" parent="1" source="6JF1dS1EM6xbTjunklgh-3" target="6JF1dS1EM6xbTjunklgh-16" edge="1">
          <mxGeometry width="50" height="50" relative="1" as="geometry">
            <mxPoint x="-2380" y="510" as="sourcePoint" />
            <mxPoint x="-2330" y="460" as="targetPoint" />
          </mxGeometry>
        </mxCell>
        <mxCell id="6JF1dS1EM6xbTjunklgh-34" value="" style="endArrow=classic;html=1;rounded=0;strokeWidth=5;strokeColor=#808080;exitX=0.5;exitY=0.033;exitDx=0;exitDy=0;exitPerimeter=0;entryX=0.5;entryY=1;entryDx=0;entryDy=0;" parent="1" source="6JF1dS1EM6xbTjunklgh-22" target="6JF1dS1EM6xbTjunklgh-23" edge="1">
          <mxGeometry width="50" height="50" relative="1" as="geometry">
            <mxPoint x="-1765" y="170" as="sourcePoint" />
            <mxPoint x="-1715" y="120" as="targetPoint" />
          </mxGeometry>
        </mxCell>
        <mxCell id="6JF1dS1EM6xbTjunklgh-35" value="" style="endArrow=classic;html=1;rounded=0;strokeWidth=5;strokeColor=#808080;exitX=0.5;exitY=0;exitDx=0;exitDy=0;entryX=0.5;entryY=1;entryDx=0;entryDy=0;" parent="1" source="6JF1dS1EM6xbTjunklgh-21" target="6JF1dS1EM6xbTjunklgh-22" edge="1">
          <mxGeometry width="50" height="50" relative="1" as="geometry">
            <mxPoint x="-1630" y="220" as="sourcePoint" />
            <mxPoint x="-1580" y="170" as="targetPoint" />
          </mxGeometry>
        </mxCell>
        <mxCell id="6JF1dS1EM6xbTjunklgh-36" value="" style="endArrow=classic;html=1;rounded=0;strokeWidth=5;strokeColor=#808080;exitX=0.5;exitY=0;exitDx=0;exitDy=0;entryX=0.5;entryY=1;entryDx=0;entryDy=0;" parent="1" source="6JF1dS1EM6xbTjunklgh-20" target="6JF1dS1EM6xbTjunklgh-22" edge="1">
          <mxGeometry width="50" height="50" relative="1" as="geometry">
            <mxPoint x="-2150" y="230" as="sourcePoint" />
            <mxPoint x="-2100" y="180" as="targetPoint" />
          </mxGeometry>
        </mxCell>
        <mxCell id="6JF1dS1EM6xbTjunklgh-37" value="" style="endArrow=classic;html=1;rounded=0;strokeWidth=5;strokeColor=#808080;exitX=0.5;exitY=0;exitDx=0;exitDy=0;entryX=0.5;entryY=1;entryDx=0;entryDy=0;" parent="1" source="6JF1dS1EM6xbTjunklgh-15" target="6JF1dS1EM6xbTjunklgh-10" edge="1">
          <mxGeometry width="50" height="50" relative="1" as="geometry">
            <mxPoint x="-1420" y="530" as="sourcePoint" />
            <mxPoint x="-1370" y="480" as="targetPoint" />
          </mxGeometry>
        </mxCell>
        <mxCell id="6JF1dS1EM6xbTjunklgh-38" value="" style="endArrow=classic;html=1;rounded=0;strokeWidth=5;strokeColor=#808080;exitX=0.5;exitY=0;exitDx=0;exitDy=0;entryX=0.5;entryY=1;entryDx=0;entryDy=0;" parent="1" source="6JF1dS1EM6xbTjunklgh-14" target="6JF1dS1EM6xbTjunklgh-10" edge="1">
          <mxGeometry width="50" height="50" relative="1" as="geometry">
            <mxPoint x="-1440" y="540" as="sourcePoint" />
            <mxPoint x="-1390" y="490" as="targetPoint" />
          </mxGeometry>
        </mxCell>
        <mxCell id="6JF1dS1EM6xbTjunklgh-39" value="" style="endArrow=classic;html=1;rounded=0;strokeWidth=5;strokeColor=#808080;exitX=0.5;exitY=0;exitDx=0;exitDy=0;entryX=0.5;entryY=1;entryDx=0;entryDy=0;" parent="1" source="6JF1dS1EM6xbTjunklgh-12" target="6JF1dS1EM6xbTjunklgh-10" edge="1">
          <mxGeometry width="50" height="50" relative="1" as="geometry">
            <mxPoint x="-1540" y="575" as="sourcePoint" />
            <mxPoint x="-1490" y="525" as="targetPoint" />
          </mxGeometry>
        </mxCell>
        <mxCell id="6JF1dS1EM6xbTjunklgh-40" value="" style="endArrow=classic;html=1;rounded=0;strokeWidth=5;strokeColor=#808080;exitX=0.5;exitY=0;exitDx=0;exitDy=0;entryX=0.5;entryY=1;entryDx=0;entryDy=0;" parent="1" source="6JF1dS1EM6xbTjunklgh-11" target="6JF1dS1EM6xbTjunklgh-10" edge="1">
          <mxGeometry width="50" height="50" relative="1" as="geometry">
            <mxPoint x="-1870" y="590" as="sourcePoint" />
            <mxPoint x="-1820" y="540" as="targetPoint" />
          </mxGeometry>
        </mxCell>
        <mxCell id="6JF1dS1EM6xbTjunklgh-41" value="" style="endArrow=classic;html=1;rounded=0;strokeWidth=5;strokeColor=#808080;exitX=0.5;exitY=0;exitDx=0;exitDy=0;entryX=0.5;entryY=1;entryDx=0;entryDy=0;" parent="1" source="6JF1dS1EM6xbTjunklgh-8" target="6JF1dS1EM6xbTjunklgh-3" edge="1">
          <mxGeometry width="50" height="50" relative="1" as="geometry">
            <mxPoint x="-2000" y="560" as="sourcePoint" />
            <mxPoint x="-1950" y="510" as="targetPoint" />
          </mxGeometry>
        </mxCell>
        <mxCell id="6JF1dS1EM6xbTjunklgh-42" value="" style="endArrow=classic;html=1;rounded=0;strokeWidth=5;strokeColor=#808080;exitX=0.5;exitY=0;exitDx=0;exitDy=0;entryX=0.5;entryY=1;entryDx=0;entryDy=0;" parent="1" source="6JF1dS1EM6xbTjunklgh-7" target="6JF1dS1EM6xbTjunklgh-3" edge="1">
          <mxGeometry width="50" height="50" relative="1" as="geometry">
            <mxPoint x="-2030" y="555" as="sourcePoint" />
            <mxPoint x="-1980" y="505" as="targetPoint" />
          </mxGeometry>
        </mxCell>
        <mxCell id="6JF1dS1EM6xbTjunklgh-43" value="" style="endArrow=classic;html=1;rounded=0;strokeWidth=5;strokeColor=#808080;exitX=0.5;exitY=0;exitDx=0;exitDy=0;entryX=0.5;entryY=1;entryDx=0;entryDy=0;" parent="1" source="6JF1dS1EM6xbTjunklgh-5" target="6JF1dS1EM6xbTjunklgh-3" edge="1">
          <mxGeometry width="50" height="50" relative="1" as="geometry">
            <mxPoint x="-1980" y="575" as="sourcePoint" />
            <mxPoint x="-1930" y="525" as="targetPoint" />
          </mxGeometry>
        </mxCell>
        <mxCell id="6JF1dS1EM6xbTjunklgh-44" value="" style="endArrow=classic;html=1;rounded=0;strokeWidth=5;strokeColor=#808080;exitX=0.5;exitY=0;exitDx=0;exitDy=0;entryX=0.5;entryY=1;entryDx=0;entryDy=0;" parent="1" source="6JF1dS1EM6xbTjunklgh-13" target="6JF1dS1EM6xbTjunklgh-14" edge="1">
          <mxGeometry width="50" height="50" relative="1" as="geometry">
            <mxPoint x="-1325" y="700" as="sourcePoint" />
            <mxPoint x="-1275" y="650" as="targetPoint" />
          </mxGeometry>
        </mxCell>
        <mxCell id="6JF1dS1EM6xbTjunklgh-45" value="" style="endArrow=classic;html=1;rounded=0;strokeWidth=5;strokeColor=#808080;exitX=0.5;exitY=0;exitDx=0;exitDy=0;entryX=0.5;entryY=1;entryDx=0;entryDy=0;" parent="1" source="6JF1dS1EM6xbTjunklgh-13" target="6JF1dS1EM6xbTjunklgh-15" edge="1">
          <mxGeometry width="50" height="50" relative="1" as="geometry">
            <mxPoint x="-1290" y="670" as="sourcePoint" />
            <mxPoint x="-1240" y="620" as="targetPoint" />
          </mxGeometry>
        </mxCell>
        <mxCell id="6JF1dS1EM6xbTjunklgh-46" value="" style="endArrow=classic;html=1;rounded=0;strokeWidth=5;strokeColor=#808080;entryX=0.5;entryY=1;entryDx=0;entryDy=0;exitX=0.5;exitY=0;exitDx=0;exitDy=0;" parent="1" source="6JF1dS1EM6xbTjunklgh-9" target="6JF1dS1EM6xbTjunklgh-11" edge="1">
          <mxGeometry width="50" height="50" relative="1" as="geometry">
            <mxPoint x="-1730" y="930" as="sourcePoint" />
            <mxPoint x="-1650" y="780" as="targetPoint" />
          </mxGeometry>
        </mxCell>
        <mxCell id="6JF1dS1EM6xbTjunklgh-47" value="" style="endArrow=classic;html=1;rounded=0;strokeWidth=5;strokeColor=#808080;exitX=0.5;exitY=0;exitDx=0;exitDy=0;entryX=0.5;entryY=1;entryDx=0;entryDy=0;" parent="1" source="6JF1dS1EM6xbTjunklgh-9" target="6JF1dS1EM6xbTjunklgh-12" edge="1">
          <mxGeometry width="50" height="50" relative="1" as="geometry">
            <mxPoint x="-1360" y="520" as="sourcePoint" />
            <mxPoint x="-1310" y="470" as="targetPoint" />
          </mxGeometry>
        </mxCell>
        <mxCell id="6JF1dS1EM6xbTjunklgh-48" value="" style="endArrow=classic;html=1;rounded=0;strokeWidth=5;strokeColor=#808080;exitX=0.5;exitY=0;exitDx=0;exitDy=0;entryX=0.5;entryY=1;entryDx=0;entryDy=0;" parent="1" source="6JF1dS1EM6xbTjunklgh-6" target="6JF1dS1EM6xbTjunklgh-7" edge="1">
          <mxGeometry width="50" height="50" relative="1" as="geometry">
            <mxPoint x="-2040" y="930" as="sourcePoint" />
            <mxPoint x="-1990" y="880" as="targetPoint" />
          </mxGeometry>
        </mxCell>
        <mxCell id="6JF1dS1EM6xbTjunklgh-49" value="" style="endArrow=classic;html=1;rounded=0;strokeWidth=5;strokeColor=#808080;exitX=0.5;exitY=0;exitDx=0;exitDy=0;entryX=0.5;entryY=1;entryDx=0;entryDy=0;" parent="1" source="6JF1dS1EM6xbTjunklgh-6" target="6JF1dS1EM6xbTjunklgh-8" edge="1">
          <mxGeometry width="50" height="50" relative="1" as="geometry">
            <mxPoint x="-2000" y="930" as="sourcePoint" />
            <mxPoint x="-1950" y="880" as="targetPoint" />
          </mxGeometry>
        </mxCell>
        <mxCell id="6JF1dS1EM6xbTjunklgh-50" value="" style="endArrow=classic;html=1;rounded=0;strokeWidth=5;strokeColor=#808080;exitX=0.5;exitY=0;exitDx=0;exitDy=0;entryX=0.5;entryY=1;entryDx=0;entryDy=0;" parent="1" source="6JF1dS1EM6xbTjunklgh-2" target="6JF1dS1EM6xbTjunklgh-4" edge="1">
          <mxGeometry width="50" height="50" relative="1" as="geometry">
            <mxPoint x="-2390" y="880" as="sourcePoint" />
            <mxPoint x="-2340" y="830" as="targetPoint" />
          </mxGeometry>
        </mxCell>
        <mxCell id="6JF1dS1EM6xbTjunklgh-51" value="" style="endArrow=classic;html=1;rounded=0;strokeWidth=5;strokeColor=#808080;exitX=0.75;exitY=0;exitDx=0;exitDy=0;entryX=0.5;entryY=1;entryDx=0;entryDy=0;" parent="1" source="6JF1dS1EM6xbTjunklgh-23" target="6JF1dS1EM6xbTjunklgh-56" edge="1">
          <mxGeometry width="50" height="50" relative="1" as="geometry">
            <mxPoint x="-640" y="-30" as="sourcePoint" />
            <mxPoint x="-640" y="-250" as="targetPoint" />
          </mxGeometry>
        </mxCell>
        <mxCell id="6JF1dS1EM6xbTjunklgh-52" value="" style="endArrow=classic;html=1;rounded=0;strokeWidth=5;strokeColor=#0000f0;exitX=0.25;exitY=1;exitDx=0;exitDy=0;entryX=0.25;entryY=0;entryDx=0;entryDy=0;dashed=1;" parent="1" edge="1">
          <mxGeometry width="50" height="50" relative="1" as="geometry">
            <mxPoint x="-1500" y="920" as="sourcePoint" />
            <mxPoint x="-1500" y="800" as="targetPoint" />
          </mxGeometry>
        </mxCell>
        <mxCell id="6JF1dS1EM6xbTjunklgh-53" value="" style="endArrow=classic;html=1;rounded=0;strokeWidth=5;strokeColor=#0000f0;exitX=0.5;exitY=1;exitDx=0;exitDy=0;entryX=0.5;entryY=0;entryDx=0;entryDy=0;" parent="1" edge="1">
          <mxGeometry width="50" height="50" relative="1" as="geometry">
            <mxPoint x="-2070" y="920" as="sourcePoint" />
            <mxPoint x="-2070" y="800" as="targetPoint" />
          </mxGeometry>
        </mxCell>
        <mxCell id="6JF1dS1EM6xbTjunklgh-54" value="" style="endArrow=classic;html=1;rounded=0;strokeWidth=5;strokeColor=#0000f0;exitX=0.5;exitY=1;exitDx=0;exitDy=0;entryX=0.5;entryY=0;entryDx=0;entryDy=0;" parent="1" edge="1">
          <mxGeometry width="50" height="50" relative="1" as="geometry">
            <mxPoint x="-2370" y="920" as="sourcePoint" />
            <mxPoint x="-2370" y="800" as="targetPoint" />
          </mxGeometry>
        </mxCell>
        <mxCell id="6JF1dS1EM6xbTjunklgh-55" value="" style="endArrow=classic;html=1;rounded=0;strokeWidth=5;strokeColor=#0000f0;exitX=0.5;exitY=1;exitDx=0;exitDy=0;entryX=0.5;entryY=0;entryDx=0;entryDy=0;" parent="1" edge="1">
          <mxGeometry width="50" height="50" relative="1" as="geometry">
            <mxPoint x="-1770" y="920" as="sourcePoint" />
            <mxPoint x="-1770" y="800" as="targetPoint" />
          </mxGeometry>
        </mxCell>
        <mxCell id="6JF1dS1EM6xbTjunklgh-56" value="&lt;font style=&quot;font-size: 24px;&quot;&gt;nvmeof target&lt;br&gt;&lt;/font&gt;" style="rounded=0;whiteSpace=wrap;html=1;" parent="1" vertex="1">
          <mxGeometry x="-1920" y="-100" width="240" height="60" as="geometry" />
        </mxCell>
        <mxCell id="6JF1dS1EM6xbTjunklgh-57" value="" style="endArrow=classic;html=1;rounded=0;strokeWidth=5;strokeColor=#808080;exitX=0.25;exitY=0;exitDx=0;exitDy=0;entryX=0.5;entryY=0;entryDx=0;entryDy=0;" parent="1" source="6JF1dS1EM6xbTjunklgh-23" edge="1">
          <mxGeometry width="50" height="50" relative="1" as="geometry">
            <mxPoint x="-2041" y="-80" as="sourcePoint" />
            <mxPoint x="-2040" y="-220" as="targetPoint" />
          </mxGeometry>
        </mxCell>
        <mxCell id="6JF1dS1EM6xbTjunklgh-58" value="" style="endArrow=classic;html=1;rounded=0;strokeWidth=5;strokeColor=#f000f0;exitX=0.5;exitY=0;exitDx=0;exitDy=0;entryX=0.5;entryY=0;entryDx=0;entryDy=0;" parent="1" source="6JF1dS1EM6xbTjunklgh-56" edge="1">
          <mxGeometry width="50" height="50" relative="1" as="geometry">
            <mxPoint x="-1585" y="-240" as="sourcePoint" />
            <mxPoint x="-1800" y="-220" as="targetPoint" />
          </mxGeometry>
        </mxCell>
        <mxCell id="6JF1dS1EM6xbTjunklgh-64" value="" style="endArrow=classic;html=1;rounded=0;strokeWidth=5;strokeColor=#0000f0;exitX=0.5;exitY=0;exitDx=0;exitDy=0;entryX=0.5;entryY=0;entryDx=0;entryDy=0;dashed=1;" parent="1" source="6JF1dS1EM6xbTjunklgh-62" edge="1">
          <mxGeometry width="50" height="50" relative="1" as="geometry">
            <mxPoint x="-1000" y="-330" as="sourcePoint" />
            <mxPoint x="-1020" y="-200" as="targetPoint" />
          </mxGeometry>
        </mxCell>
        <mxCell id="6JF1dS1EM6xbTjunklgh-70" value="" style="endArrow=classic;html=1;rounded=0;strokeWidth=5;strokeColor=#0000f0;exitX=0.5;exitY=0;exitDx=0;exitDy=0;entryX=0.5;entryY=0;entryDx=0;entryDy=0;" parent="1" source="6JF1dS1EM6xbTjunklgh-68" edge="1">
          <mxGeometry width="50" height="50" relative="1" as="geometry">
            <mxPoint x="-995" y="290" as="sourcePoint" />
            <mxPoint x="-925" y="240" as="targetPoint" />
          </mxGeometry>
        </mxCell>
        <mxCell id="6JF1dS1EM6xbTjunklgh-76" value="" style="endArrow=classic;html=1;rounded=0;strokeWidth=5;strokeColor=#0000f0;exitX=0.5;exitY=0;exitDx=0;exitDy=0;entryX=0.5;entryY=0;entryDx=0;entryDy=0;" parent="1" source="6JF1dS1EM6xbTjunklgh-71" edge="1">
          <mxGeometry width="50" height="50" relative="1" as="geometry">
            <mxPoint x="-1010" y="-70" as="sourcePoint" />
            <mxPoint x="-840" y="-200" as="targetPoint" />
          </mxGeometry>
        </mxCell>
        <mxCell id="6JF1dS1EM6xbTjunklgh-67" value="&lt;font style=&quot;font-size: 24px;&quot;&gt;linear&lt;/font&gt;" style="rounded=0;whiteSpace=wrap;html=1;container=0;" parent="1" vertex="1">
          <mxGeometry x="-1075" y="660" width="120" height="60" as="geometry" />
        </mxCell>
        <mxCell id="6JF1dS1EM6xbTjunklgh-68" value="&lt;font style=&quot;font-size: 24px;&quot;&gt;nvme&lt;br&gt;target&lt;br&gt;&lt;/font&gt;" style="rounded=0;whiteSpace=wrap;html=1;container=0;" parent="1" vertex="1">
          <mxGeometry x="-985" y="420" width="120" height="60" as="geometry" />
        </mxCell>
        <mxCell id="6JF1dS1EM6xbTjunklgh-69" value="" style="endArrow=classic;html=1;rounded=0;strokeWidth=5;strokeColor=#808080;exitX=0.5;exitY=0;exitDx=0;exitDy=0;entryX=0.583;entryY=1;entryDx=0;entryDy=0;entryPerimeter=0;" parent="1" source="6JF1dS1EM6xbTjunklgh-67" target="6JF1dS1EM6xbTjunklgh-79" edge="1">
          <mxGeometry width="50" height="50" relative="1" as="geometry">
            <mxPoint x="-1425" y="410" as="sourcePoint" />
            <mxPoint x="-1375" y="360" as="targetPoint" />
          </mxGeometry>
        </mxCell>
        <mxCell id="6JF1dS1EM6xbTjunklgh-61" value="&lt;font style=&quot;font-size: 24px;&quot;&gt;linear&lt;/font&gt;" style="rounded=0;whiteSpace=wrap;html=1;container=0;" parent="1" vertex="1">
          <mxGeometry x="-990" y="40" width="120" height="60" as="geometry" />
        </mxCell>
        <mxCell id="6JF1dS1EM6xbTjunklgh-62" value="&lt;font style=&quot;font-size: 24px;&quot;&gt;&lt;strike&gt;&lt;i&gt;nvme&lt;br&gt;target&lt;/i&gt;&lt;/strike&gt;&lt;br&gt;&lt;/font&gt;" style="rounded=0;whiteSpace=wrap;html=1;container=0;" parent="1" vertex="1">
          <mxGeometry x="-1080" y="-80" width="120" height="60" as="geometry" />
        </mxCell>
        <mxCell id="6JF1dS1EM6xbTjunklgh-63" value="" style="endArrow=classic;html=1;rounded=0;strokeWidth=5;strokeColor=#808080;exitX=0.5;exitY=0;exitDx=0;exitDy=0;entryX=0.5;entryY=1;entryDx=0;entryDy=0;dashed=1;" parent="1" source="6JF1dS1EM6xbTjunklgh-61" target="6JF1dS1EM6xbTjunklgh-62" edge="1">
          <mxGeometry width="50" height="50" relative="1" as="geometry">
            <mxPoint x="-1430" y="-210" as="sourcePoint" />
            <mxPoint x="-1380" y="-260" as="targetPoint" />
          </mxGeometry>
        </mxCell>
        <mxCell id="6JF1dS1EM6xbTjunklgh-71" value="&lt;font style=&quot;font-size: 24px;&quot;&gt;&lt;b&gt;&lt;u&gt;nvme&lt;br&gt;target&lt;/u&gt;&lt;/b&gt;&lt;br&gt;&lt;/font&gt;" style="rounded=0;whiteSpace=wrap;html=1;container=0;" parent="1" vertex="1">
          <mxGeometry x="-900" y="-80" width="120" height="60" as="geometry" />
        </mxCell>
        <mxCell id="6JF1dS1EM6xbTjunklgh-72" value="" style="endArrow=classic;html=1;rounded=0;strokeWidth=5;strokeColor=#808080;exitX=0.5;exitY=0;exitDx=0;exitDy=0;entryX=0.583;entryY=1;entryDx=0;entryDy=0;entryPerimeter=0;" parent="1" source="6JF1dS1EM6xbTjunklgh-61" target="6JF1dS1EM6xbTjunklgh-71" edge="1">
          <mxGeometry width="50" height="50" relative="1" as="geometry">
            <mxPoint x="-560" y="60" as="sourcePoint" />
            <mxPoint x="-560" as="targetPoint" />
          </mxGeometry>
        </mxCell>
        <mxCell id="6JF1dS1EM6xbTjunklgh-78" value="&lt;font style=&quot;font-size: 24px;&quot;&gt;old&lt;br&gt;logical disk&lt;br&gt;&lt;/font&gt;" style="rounded=0;whiteSpace=wrap;html=1;container=0;" parent="1" vertex="1">
          <mxGeometry x="-895" y="660" width="120" height="60" as="geometry" />
        </mxCell>
        <mxCell id="6JF1dS1EM6xbTjunklgh-79" value="&lt;font style=&quot;font-size: 24px;&quot;&gt;clone&lt;br&gt;&lt;/font&gt;" style="rounded=0;whiteSpace=wrap;html=1;container=0;" parent="1" vertex="1">
          <mxGeometry x="-985" y="540" width="120" height="60" as="geometry" />
        </mxCell>
        <mxCell id="6JF1dS1EM6xbTjunklgh-80" value="" style="endArrow=classic;html=1;rounded=0;strokeWidth=5;strokeColor=#808080;exitX=0.5;exitY=0;exitDx=0;exitDy=0;entryX=0.5;entryY=1;entryDx=0;entryDy=0;" parent="1" source="6JF1dS1EM6xbTjunklgh-78" target="6JF1dS1EM6xbTjunklgh-79" edge="1">
          <mxGeometry width="50" height="50" relative="1" as="geometry">
            <mxPoint x="-1005" y="670" as="sourcePoint" />
            <mxPoint x="-905" y="610" as="targetPoint" />
          </mxGeometry>
        </mxCell>
        <mxCell id="6JF1dS1EM6xbTjunklgh-82" value="" style="endArrow=classic;html=1;rounded=0;strokeWidth=5;strokeColor=#808080;exitX=0.5;exitY=0;exitDx=0;exitDy=0;entryX=0.5;entryY=1;entryDx=0;entryDy=0;" parent="1" source="6JF1dS1EM6xbTjunklgh-79" target="6JF1dS1EM6xbTjunklgh-68" edge="1">
          <mxGeometry width="50" height="50" relative="1" as="geometry">
            <mxPoint x="-825" y="670" as="sourcePoint" />
            <mxPoint x="-915" y="610" as="targetPoint" />
          </mxGeometry>
        </mxCell>
        <mxCell id="EK6KpNQJIU4OniFnHXBM-8" value="" style="endArrow=classic;html=1;rounded=0;strokeWidth=5;strokeColor=#0000f0;entryX=0;entryY=0.5;entryDx=0;entryDy=0;exitX=1;exitY=0.5;exitDx=0;exitDy=0;" parent="1" edge="1">
          <mxGeometry width="50" height="50" relative="1" as="geometry">
            <mxPoint x="-595" y="690" as="sourcePoint" />
            <mxPoint x="-775" y="690" as="targetPoint" />
          </mxGeometry>
        </mxCell>
        <mxCell id="6JF1dS1EM6xbTjunklgh-87" value="&lt;font style=&quot;&quot;&gt;&lt;font size=&quot;1&quot; color=&quot;#ff8000&quot;&gt;&lt;b style=&quot;font-size: 24px;&quot;&gt;(0) Choose a new DN for the new Logical Disk&lt;/b&gt;&lt;/font&gt;&lt;br&gt;&lt;/font&gt;" style="text;html=1;align=center;verticalAlign=middle;whiteSpace=wrap;rounded=0;" parent="1" vertex="1">
          <mxGeometry x="-1090" y="890" width="360" height="40" as="geometry" />
        </mxCell>
        <mxCell id="6JF1dS1EM6xbTjunklgh-88" value="&lt;font style=&quot;&quot;&gt;&lt;font size=&quot;1&quot; color=&quot;#ff8000&quot;&gt;&lt;b style=&quot;font-size: 24px;&quot;&gt;(1) Suspend the thin pool&lt;/b&gt;&lt;/font&gt;&lt;br&gt;&lt;/font&gt;" style="text;html=1;align=center;verticalAlign=middle;whiteSpace=wrap;rounded=0;" parent="1" vertex="1">
          <mxGeometry x="-2550" y="190" width="360" height="40" as="geometry" />
        </mxCell>
        <mxCell id="6JF1dS1EM6xbTjunklgh-89" value="&lt;font style=&quot;&quot;&gt;&lt;font size=&quot;1&quot; color=&quot;#ff8000&quot;&gt;&lt;b style=&quot;font-size: 24px;&quot;&gt;(2) Remove all dm devices on top of the Logical Disk&lt;/b&gt;&lt;/font&gt;&lt;br&gt;&lt;/font&gt;" style="text;html=1;align=center;verticalAlign=middle;whiteSpace=wrap;rounded=0;" parent="1" vertex="1">
          <mxGeometry x="-1690" y="120" width="360" height="40" as="geometry" />
        </mxCell>
        <mxCell id="6JF1dS1EM6xbTjunklgh-90" value="&lt;font style=&quot;&quot;&gt;&lt;font size=&quot;1&quot; color=&quot;#ff8000&quot;&gt;&lt;b style=&quot;font-size: 24px;&quot;&gt;(3) Disconnect the&lt;br&gt;old Logical Disk&lt;/b&gt;&lt;/font&gt;&lt;br&gt;&lt;/font&gt;" style="text;html=1;align=center;verticalAlign=middle;whiteSpace=wrap;rounded=0;" parent="1" vertex="1">
          <mxGeometry x="-1840" y="870" width="360" height="40" as="geometry" />
        </mxCell>
        <mxCell id="6JF1dS1EM6xbTjunklgh-91" value="&lt;font style=&quot;&quot;&gt;&lt;font size=&quot;1&quot; color=&quot;#ff8000&quot;&gt;&lt;b style=&quot;font-size: 24px;&quot;&gt;(4) Remove nvmeof target to the ActiveController&lt;/b&gt;&lt;/font&gt;&lt;br&gt;&lt;/font&gt;" style="text;html=1;align=center;verticalAlign=middle;whiteSpace=wrap;rounded=0;" parent="1" vertex="1">
          <mxGeometry x="-1470" y="-160" width="360" height="40" as="geometry" />
        </mxCell>
        <mxCell id="6JF1dS1EM6xbTjunklgh-92" value="&lt;font style=&quot;&quot;&gt;&lt;font size=&quot;1&quot; color=&quot;#ff8000&quot;&gt;&lt;b style=&quot;font-size: 24px;&quot;&gt;(5) Suspend and resume linear to flush IO&lt;/b&gt;&lt;/font&gt;&lt;br&gt;&lt;/font&gt;" style="text;html=1;align=center;verticalAlign=middle;whiteSpace=wrap;rounded=0;" parent="1" vertex="1">
          <mxGeometry x="-1455" y="-10" width="360" height="10" as="geometry" />
        </mxCell>
        <mxCell id="6JF1dS1EM6xbTjunklgh-93" value="&lt;font style=&quot;&quot;&gt;&lt;font size=&quot;1&quot; color=&quot;#ff8000&quot;&gt;&lt;b style=&quot;font-size: 24px;&quot;&gt;(6) Create a new nvmeof target to the new Logical Disk&lt;/b&gt;&lt;/font&gt;&lt;br&gt;&lt;/font&gt;" style="text;html=1;align=center;verticalAlign=middle;whiteSpace=wrap;rounded=0;" parent="1" vertex="1">
          <mxGeometry x="-900" y="210" width="360" height="10" as="geometry" />
        </mxCell>
        <mxCell id="6JF1dS1EM6xbTjunklgh-94" value="&lt;font style=&quot;&quot;&gt;&lt;font size=&quot;1&quot; color=&quot;#ff8000&quot;&gt;&lt;b style=&quot;font-size: 24px;&quot;&gt;(7) Create linear&lt;/b&gt;&lt;/font&gt;&lt;br&gt;&lt;/font&gt;" style="text;html=1;align=center;verticalAlign=middle;whiteSpace=wrap;rounded=0;" parent="1" vertex="1">
          <mxGeometry x="-1380" y="580" width="360" height="10" as="geometry" />
        </mxCell>
        <mxCell id="6JF1dS1EM6xbTjunklgh-95" value="&lt;font style=&quot;&quot;&gt;&lt;font size=&quot;1&quot; color=&quot;#ff8000&quot;&gt;&lt;b style=&quot;font-size: 24px;&quot;&gt;(8) Connect to the&lt;br&gt;old Logical Disk&lt;/b&gt;&lt;/font&gt;&lt;br&gt;&lt;/font&gt;" style="text;html=1;align=center;verticalAlign=middle;whiteSpace=wrap;rounded=0;" parent="1" vertex="1">
          <mxGeometry x="-820" y="610" width="360" height="10" as="geometry" />
        </mxCell>
        <mxCell id="6JF1dS1EM6xbTjunklgh-96" value="&lt;font style=&quot;&quot;&gt;&lt;font size=&quot;1&quot; color=&quot;#ff8000&quot;&gt;&lt;b style=&quot;font-size: 24px;&quot;&gt;(11) Connect to the new Logical Disk&lt;/b&gt;&lt;/font&gt;&lt;br&gt;&lt;/font&gt;" style="text;html=1;align=center;verticalAlign=middle;whiteSpace=wrap;rounded=0;" parent="1" vertex="1">
          <mxGeometry x="-1470" y="890" width="360" height="10" as="geometry" />
        </mxCell>
        <mxCell id="6JF1dS1EM6xbTjunklgh-97" value="&lt;font style=&quot;&quot;&gt;&lt;font size=&quot;1&quot; color=&quot;#ff8000&quot;&gt;&lt;b style=&quot;font-size: 24px;&quot;&gt;(12) Create all dm devices&lt;/b&gt;&lt;/font&gt;&lt;br&gt;&lt;/font&gt;" style="text;html=1;align=center;verticalAlign=middle;whiteSpace=wrap;rounded=0;" parent="1" vertex="1">
          <mxGeometry x="-1345" y="225" width="360" height="10" as="geometry" />
        </mxCell>
        <mxCell id="6JF1dS1EM6xbTjunklgh-98" value="&lt;font style=&quot;&quot;&gt;&lt;font size=&quot;1&quot; color=&quot;#ff8000&quot;&gt;&lt;b style=&quot;font-size: 24px;&quot;&gt;(13) Resume the thin pool&lt;/b&gt;&lt;/font&gt;&lt;br&gt;&lt;/font&gt;" style="text;html=1;align=center;verticalAlign=middle;whiteSpace=wrap;rounded=0;" parent="1" vertex="1">
          <mxGeometry x="-2510" y="110" width="360" height="10" as="geometry" />
        </mxCell>
        <mxCell id="6JF1dS1EM6xbTjunklgh-99" value="&lt;font style=&quot;&quot;&gt;&lt;font size=&quot;1&quot; color=&quot;#ff8000&quot;&gt;&lt;b style=&quot;font-size: 24px;&quot;&gt;(14) Check the clone status, &lt;br&gt;if it is synced, &lt;br&gt;remove the clone and &lt;br&gt;cleanup the old Logical Disk&lt;/b&gt;&lt;/font&gt;&lt;br&gt;&lt;/font&gt;" style="text;html=1;align=center;verticalAlign=middle;whiteSpace=wrap;rounded=0;" parent="1" vertex="1">
          <mxGeometry x="-870" y="290" width="400" height="80" as="geometry" />
        </mxCell>
        <mxCell id="Cx0IqI09Y8lKUOxxlhVQ-2" value="" style="endArrow=classic;html=1;rounded=0;exitX=0.558;exitY=1.4;exitDx=0;exitDy=0;strokeColor=#ff8000;exitPerimeter=0;" parent="1" source="6JF1dS1EM6xbTjunklgh-118" edge="1">
          <mxGeometry width="50" height="50" relative="1" as="geometry">
            <mxPoint x="-340" y="634" as="sourcePoint" />
            <mxPoint x="-980" y="560" as="targetPoint" />
          </mxGeometry>
        </mxCell>
        <mxCell id="6JF1dS1EM6xbTjunklgh-105" value="" style="endArrow=classic;html=1;rounded=0;exitX=0.572;exitY=1.3;exitDx=0;exitDy=0;entryX=0.25;entryY=0;entryDx=0;entryDy=0;strokeColor=#ff8000;exitPerimeter=0;" parent="1" source="6JF1dS1EM6xbTjunklgh-94" target="6JF1dS1EM6xbTjunklgh-67" edge="1">
          <mxGeometry width="50" height="50" relative="1" as="geometry">
            <mxPoint x="-330" y="644" as="sourcePoint" />
            <mxPoint x="-235" y="730" as="targetPoint" />
          </mxGeometry>
        </mxCell>
        <mxCell id="6JF1dS1EM6xbTjunklgh-106" value="" style="endArrow=classic;html=1;rounded=0;exitX=0.508;exitY=1.7;exitDx=0;exitDy=0;entryX=0;entryY=0.25;entryDx=0;entryDy=0;strokeColor=#ff8000;exitPerimeter=0;" parent="1" source="6JF1dS1EM6xbTjunklgh-92" target="6JF1dS1EM6xbTjunklgh-61" edge="1">
          <mxGeometry width="50" height="50" relative="1" as="geometry">
            <mxPoint x="-320" y="654" as="sourcePoint" />
            <mxPoint x="-225" y="740" as="targetPoint" />
          </mxGeometry>
        </mxCell>
        <mxCell id="6JF1dS1EM6xbTjunklgh-107" value="" style="endArrow=classic;html=1;rounded=0;exitX=0.508;exitY=-0.6;exitDx=0;exitDy=0;entryX=0.75;entryY=1;entryDx=0;entryDy=0;strokeColor=#ff8000;exitPerimeter=0;" parent="1" source="6JF1dS1EM6xbTjunklgh-93" target="6JF1dS1EM6xbTjunklgh-71" edge="1">
          <mxGeometry width="50" height="50" relative="1" as="geometry">
            <mxPoint x="-310" y="664" as="sourcePoint" />
            <mxPoint x="-215" y="750" as="targetPoint" />
          </mxGeometry>
        </mxCell>
        <mxCell id="6JF1dS1EM6xbTjunklgh-108" value="" style="endArrow=classic;html=1;rounded=0;exitX=0.5;exitY=0;exitDx=0;exitDy=0;strokeColor=#ff8000;" parent="1" source="6JF1dS1EM6xbTjunklgh-90" edge="1">
          <mxGeometry width="50" height="50" relative="1" as="geometry">
            <mxPoint x="-300" y="674" as="sourcePoint" />
            <mxPoint x="-1500" y="830" as="targetPoint" />
          </mxGeometry>
        </mxCell>
        <mxCell id="6JF1dS1EM6xbTjunklgh-109" value="" style="endArrow=classic;html=1;rounded=0;exitX=0.519;exitY=1.075;exitDx=0;exitDy=0;entryX=-0.05;entryY=0.283;entryDx=0;entryDy=0;strokeColor=#ff8000;entryPerimeter=0;exitPerimeter=0;" parent="1" source="6JF1dS1EM6xbTjunklgh-91" target="6JF1dS1EM6xbTjunklgh-62" edge="1">
          <mxGeometry width="50" height="50" relative="1" as="geometry">
            <mxPoint x="-555" y="-86" as="sourcePoint" />
            <mxPoint x="-460" as="targetPoint" />
          </mxGeometry>
        </mxCell>
        <mxCell id="6JF1dS1EM6xbTjunklgh-110" value="" style="endArrow=classic;html=1;rounded=0;exitX=0.483;exitY=0.975;exitDx=0;exitDy=0;entryX=0.775;entryY=-0.002;entryDx=0;entryDy=0;strokeColor=#ff8000;entryPerimeter=0;exitPerimeter=0;" parent="1" source="6JF1dS1EM6xbTjunklgh-89" target="6JF1dS1EM6xbTjunklgh-116" edge="1">
          <mxGeometry width="50" height="50" relative="1" as="geometry">
            <mxPoint x="-477.5" y="620" as="sourcePoint" />
            <mxPoint x="-342.4399999999996" y="791.02" as="targetPoint" />
          </mxGeometry>
        </mxCell>
        <mxCell id="6JF1dS1EM6xbTjunklgh-112" value="" style="endArrow=classic;html=1;rounded=0;exitX=0.5;exitY=0;exitDx=0;exitDy=0;entryX=0;entryY=0.75;entryDx=0;entryDy=0;strokeColor=#ff8000;" parent="1" source="6JF1dS1EM6xbTjunklgh-88" target="6JF1dS1EM6xbTjunklgh-22" edge="1">
          <mxGeometry width="50" height="50" relative="1" as="geometry">
            <mxPoint x="-2165" y="130" as="sourcePoint" />
            <mxPoint x="-2070" y="216" as="targetPoint" />
          </mxGeometry>
        </mxCell>
        <mxCell id="6JF1dS1EM6xbTjunklgh-113" value="" style="endArrow=classic;html=1;rounded=0;exitX=0.5;exitY=0;exitDx=0;exitDy=0;entryX=0.525;entryY=0.996;entryDx=0;entryDy=0;strokeColor=#ff8000;entryPerimeter=0;" parent="1" source="6JF1dS1EM6xbTjunklgh-87" target="6JF1dS1EM6xbTjunklgh-103" edge="1">
          <mxGeometry width="50" height="50" relative="1" as="geometry">
            <mxPoint x="-605" y="920" as="sourcePoint" />
            <mxPoint x="-510" y="1006" as="targetPoint" />
          </mxGeometry>
        </mxCell>
        <mxCell id="6JF1dS1EM6xbTjunklgh-114" value="" style="endArrow=classic;html=1;rounded=0;exitX=0.5;exitY=1;exitDx=0;exitDy=0;entryX=0.75;entryY=0;entryDx=0;entryDy=0;strokeColor=#ff8000;" parent="1" source="6JF1dS1EM6xbTjunklgh-95" target="6JF1dS1EM6xbTjunklgh-78" edge="1">
          <mxGeometry width="50" height="50" relative="1" as="geometry">
            <mxPoint x="-240" y="734" as="sourcePoint" />
            <mxPoint x="-145" y="820" as="targetPoint" />
          </mxGeometry>
        </mxCell>
        <mxCell id="6JF1dS1EM6xbTjunklgh-117" value="&lt;font style=&quot;&quot;&gt;&lt;font size=&quot;1&quot; color=&quot;#ff8000&quot;&gt;&lt;b style=&quot;font-size: 24px;&quot;&gt;(10) Create nvmeof target to the ActiveController&lt;/b&gt;&lt;/font&gt;&lt;br&gt;&lt;/font&gt;" style="text;html=1;align=center;verticalAlign=middle;whiteSpace=wrap;rounded=0;" parent="1" vertex="1">
          <mxGeometry x="-1320" y="360" width="360" height="10" as="geometry" />
        </mxCell>
        <mxCell id="6JF1dS1EM6xbTjunklgh-118" value="&lt;font style=&quot;&quot;&gt;&lt;font size=&quot;1&quot; color=&quot;#ff8000&quot;&gt;&lt;b style=&quot;font-size: 24px;&quot;&gt;(9) Create clone&lt;/b&gt;&lt;/font&gt;&lt;br&gt;&lt;/font&gt;" style="text;html=1;align=center;verticalAlign=middle;whiteSpace=wrap;rounded=0;" parent="1" vertex="1">
          <mxGeometry x="-1360" y="510" width="360" height="10" as="geometry" />
        </mxCell>
        <mxCell id="6JF1dS1EM6xbTjunklgh-122" value="" style="endArrow=classic;html=1;rounded=0;strokeWidth=5;strokeColor=#0000f0;exitX=0.75;exitY=1;exitDx=0;exitDy=0;entryX=0.75;entryY=0;entryDx=0;entryDy=0;" parent="1" edge="1">
          <mxGeometry width="50" height="50" relative="1" as="geometry">
            <mxPoint x="-1440" y="920" as="sourcePoint" />
            <mxPoint x="-1440" y="800" as="targetPoint" />
          </mxGeometry>
        </mxCell>
        <mxCell id="6JF1dS1EM6xbTjunklgh-126" value="" style="endArrow=classic;html=1;rounded=0;exitX=0.5;exitY=1;exitDx=0;exitDy=0;entryX=1;entryY=0.25;entryDx=0;entryDy=0;strokeColor=#ff8000;" parent="1" source="6JF1dS1EM6xbTjunklgh-99" target="6JF1dS1EM6xbTjunklgh-79" edge="1">
          <mxGeometry width="50" height="50" relative="1" as="geometry">
            <mxPoint x="-260" y="714" as="sourcePoint" />
            <mxPoint x="-165" y="800" as="targetPoint" />
          </mxGeometry>
        </mxCell>
        <mxCell id="6JF1dS1EM6xbTjunklgh-127" value="" style="endArrow=classic;html=1;rounded=0;exitX=0.528;exitY=1.4;exitDx=0;exitDy=0;strokeColor=#ff8000;exitPerimeter=0;" parent="1" source="6JF1dS1EM6xbTjunklgh-97" target="6JF1dS1EM6xbTjunklgh-116" edge="1">
          <mxGeometry width="50" height="50" relative="1" as="geometry">
            <mxPoint x="-250" y="724" as="sourcePoint" />
            <mxPoint x="-155" y="810" as="targetPoint" />
          </mxGeometry>
        </mxCell>
        <mxCell id="6JF1dS1EM6xbTjunklgh-128" value="" style="endArrow=classic;html=1;rounded=0;exitX=0.539;exitY=1.6;exitDx=0;exitDy=0;entryX=0;entryY=0.25;entryDx=0;entryDy=0;strokeColor=#ff8000;exitPerimeter=0;" parent="1" source="6JF1dS1EM6xbTjunklgh-98" target="6JF1dS1EM6xbTjunklgh-22" edge="1">
          <mxGeometry width="50" height="50" relative="1" as="geometry">
            <mxPoint x="-2125" y="149" as="sourcePoint" />
            <mxPoint x="-2030" y="235" as="targetPoint" />
          </mxGeometry>
        </mxCell>
        <mxCell id="6JF1dS1EM6xbTjunklgh-129" value="" style="endArrow=classic;html=1;rounded=0;exitX=0.5;exitY=0;exitDx=0;exitDy=0;strokeColor=#ff8000;" parent="1" source="6JF1dS1EM6xbTjunklgh-96" edge="1">
          <mxGeometry width="50" height="50" relative="1" as="geometry">
            <mxPoint x="-230" y="744" as="sourcePoint" />
            <mxPoint x="-1440" y="830" as="targetPoint" />
          </mxGeometry>
        </mxCell>
        <mxCell id="6JF1dS1EM6xbTjunklgh-132" value="" style="endArrow=classic;html=1;rounded=0;entryX=0.025;entryY=0.383;entryDx=0;entryDy=0;strokeColor=#ff8000;entryPerimeter=0;exitX=0.5;exitY=1;exitDx=0;exitDy=0;" parent="1" source="6JF1dS1EM6xbTjunklgh-117" target="6JF1dS1EM6xbTjunklgh-68" edge="1">
          <mxGeometry width="50" height="50" relative="1" as="geometry">
            <mxPoint x="-360" y="770" as="sourcePoint" />
            <mxPoint x="-105" y="860" as="targetPoint" />
          </mxGeometry>
        </mxCell>
      </root>
    </mxGraphModel>
  </diagram>
</mxfile>
